<svg xmlns="http://www.w3.org/2000/svg" width="32" height="32" fill="none">
  <rect width="32" height="32" fill="#000" rx="12" />
  <path
    fill="#DBFF4D"
    d="M16.004 2 11.63 6.375l4.375 4.375 4.375-4.375L16.004 2zm0 19.25-4.375 4.375L16.004 30l4.375-4.375-4.375-4.375zm6.148-13.851L28.13 9l-1.602 5.976-5.976-1.601 1.601-5.976zM11.458 18.625 5.48 17.024 3.88 23l5.976 1.601 1.602-5.976zm-5.977-3.649L3.88 9l5.976-1.601 1.602 5.976-5.977 1.601zm15.07 3.649 1.601 5.976L28.13 23l-1.602-5.976-5.976 1.601z"
  />
</svg>
